<svg width="104" height="134" viewBox="0 0 104 134" fill="none" xmlns="http://www.w3.org/2000/svg">
<path d="M65.0143 50.6882C68.0988 55.7263 72.112 59.4295 79.2097 59.4295C85.1722 59.4295 88.9812 56.4485 88.9812 52.3295C88.9812 47.3935 85.0677 45.6452 78.5048 42.7736L74.9073 41.2296C64.5232 36.8042 57.6249 31.2603 57.6249 19.5403C57.6249 8.74437 65.848 0.525818 78.6992 0.525818C87.8484 0.525818 94.426 3.71112 99.1659 12.0513L87.9603 19.2486C85.4931 14.8232 82.8314 13.0798 78.6992 13.0798C74.4843 13.0798 71.813 15.7545 71.813 19.2486C71.813 23.567 74.4868 25.3152 80.6608 27.9899L84.2583 29.5315C96.4848 34.7763 103.388 40.1232 103.388 52.1447C103.388 65.1047 93.2106 72.2048 79.5427 72.2048C66.1786 72.2048 57.5446 65.8342 53.3201 57.4843L65.0143 50.6882ZM14.1806 51.9356C16.4412 55.9476 18.4975 59.3396 23.4416 59.3396C28.1694 59.3396 31.1519 57.4892 31.1519 50.2943V1.34767H45.5417V50.4888C45.5417 65.3941 36.8057 72.178 24.0542 72.178C12.5326 72.178 5.86022 66.2135 2.46693 59.0295L14.1806 51.9356Z" fill="black"/>
<path fill-rule="evenodd" clip-rule="evenodd" d="M65.9269 80.0502V133.185H98.9569V124.914H74.7729V110.704H97.0299V102.433H74.7729V88.3217H98.5715V80.0502H65.9269ZM97.1354 86.8856L97.1354 81.4863L67.363 81.4863H97.1354V86.8856ZM97.5208 126.35L97.5208 131.749V126.35H73.3368L97.5208 126.35ZM95.5938 103.869L95.5938 109.268V103.869H73.3368L95.5938 103.869ZM9.10358 81.4863L23.9866 123.798L23.9867 123.798L9.10368 81.4863L9.10358 81.4863ZM45.8217 81.4863L45.8218 81.4863L27.4138 131.749L27.4137 131.749L45.8217 81.4863ZM24.2805 120.305L10.1209 80.0502H0.683899L20.1438 133.185H28.4172L47.8771 80.0502H38.4401L24.2805 120.305Z" fill="black"/>
</svg>
